# xmcd
#
# Track frame offsets:
#	150
#	15506
#	30107
#	43402
#	57684
#	74468
#	93691
#	106794
#	120845
#	136657
#	151243
#	169236
#	185318
#	199079
#	213557
#	232829
#	247499
#	260972
#	275234
#	288290
#	304082
#	320552
#	338931
#
# Disc length: 4726 seconds
#
# Revision: 0
# Processed by: cddbd v1.5.2PL0 Copyright (c) Steve Scherf et al.
# Submitted via: EasyCDDAExtractor 12.0.1.1
#
DISCID=5a127417
DTITLE=Bellamy Brothers - Collection Disc 2
DYEAR=2000
DGENRE=Country
TTITLE0=Tropical Christmas
TTITLE1=I Love Her Mind
TTITLE2=You Ain't Just Whistlin' Dixie
TTITLE3=You'll Never Be Sorry
TTITLE4=Over The Line
TTITLE5=Diesel Cafe
TTITLE6=Hillbilly Hell
TTITLE7=Hell Cat
TTITLE8=Seasons In The Sun
TTITLE9=Stayin, in love
TTITLE10=Memorabilia
TTITLE11=If It's So Easy
TTITLE12=Lovin On
TTITLE13=Viginia Country Line
TTITLE14=Take Me Home
TTITLE15=Inside of my guitar
TTITLE16=Do You Love As Good As You Loo
TTITLE17=Ole Faithful
TTITLE18=Not
TTITLE19=Rip Off The Knob
TTITLE20=Tough Love
TTITLE21=My Indiana Lady
TTITLE22=Cowboy Beat
EXTD=
EXTT0=
EXTT1=
EXTT2=
EXTT3=
EXTT4=
EXTT5=
EXTT6=
EXTT7=
EXTT8=
EXTT9=
EXTT10=
EXTT11=
EXTT12=
EXTT13=
EXTT14=
EXTT15=
EXTT16=
EXTT17=
EXTT18=
EXTT19=
EXTT20=
EXTT21=
EXTT22=
PLAYORDER=
